<?xml version="1.0"?><svg width="640" height="480" xmlns="http://www.w3.org/2000/svg">
 <title>Alpha</title>
 <metadata id="metadata16228">image/svg+xmlGreek alphabetGreek alphabetBenjaminGreek alphabet</metadata>
 <g>
  <title>Layer 1</title>
  <g id="layer1"/>
  <g id="g16523">
   <path fill="currentColor" id="path16525" d="m377.227814,25.543856l79.728516,0l-48.306091,217.142973c-9.379822,41.27121 -15.789368,66.596741 -19.228638,75.976563c12.506378,57.529602 30.640747,86.294403 54.402924,86.294403c28.139465,0 42.678253,-19.384979 43.616241,-58.154907l16.883667,0c-0.938019,36.268646 -7.582062,65.580597 -19.932129,87.935852c-12.350098,22.355286 -28.530273,33.532867 -48.540588,33.532867c-16.571075,0 -28.921173,-6.722168 -37.050293,-20.166626c-8.129242,-13.444366 -16.883789,-40.958557 -26.263611,-82.54245c-32.516724,68.472717 -85.669067,102.709076 -159.456985,102.709076c-50.338425,0 -90.358978,-19.619415 -120.061783,-58.858398c-29.702744,-39.238922 -44.554176,-95.439728 -44.554176,-168.602341c0,-71.911987 16.258362,-127.878296 48.775085,-167.898888c32.516792,-40.020584 71.599342,-60.030893 117.247871,-60.030893c32.20401,0 58.623901,11.412115 79.259521,34.236361c20.635559,22.824265 38.926208,60.030891 54.872009,111.619934l28.608459,-133.193525zm-41.271271,183.844603c-14.695068,-50.338409 -31.109741,-89.655525 -49.24408,-117.95134c-18.134369,-28.295792 -39.864273,-42.443699 -65.189804,-42.443699c-57.216919,0 -85.825363,66.90942 -85.825363,200.72826c0,126.940308 27.357803,190.410461 82.073441,190.410461c47.52446,0 82.698807,-55.966248 105.522995,-167.898865l12.662811,-62.844818z"/>
  </g>
 </g>
</svg>